<svg aria-hidden="true" style="position: absolute; width: 0; height: 0; overflow: hidden;" version="1.1" xmlns="http://www.w3.org/2000/svg" xmlns:xlink="http://www.w3.org/1999/xlink">
<defs>
<symbol id="icon-mastercard" viewBox="0 0 178 32">
<path fill="#fff" style="fill: var(--color1, #fff)" d="M78.639 23.261v-6.671c0.005-0.077 0.008-0.166 0.008-0.257 0-2.186-1.772-3.957-3.957-3.957-0.090 0-0.18 0.003-0.269 0.009l0.012-0.001c-0.095-0.008-0.205-0.012-0.316-0.012-1.445 0-2.715 0.748-3.444 1.879l-0.010 0.016c-0.737-1.141-2.002-1.885-3.441-1.885-0.014 0-0.029 0-0.043 0l0.002-0c-0.045-0.002-0.099-0.003-0.152-0.003-1.213 0-2.278 0.632-2.885 1.585l-0.008 0.014v-1.303h-2.32v10.587h2.325v-5.946c-0.017-0.106-0.026-0.228-0.026-0.353 0-1.333 1.080-2.413 2.413-2.413 0.079 0 0.157 0.004 0.233 0.011l-0.010-0.001c1.595 0 2.32 1.011 2.32 2.755v5.946h2.321v-5.946c-0.017-0.106-0.026-0.228-0.026-0.353 0-1.333 1.080-2.413 2.413-2.413 0.079 0 0.157 0.004 0.233 0.011l-0.010-0.001c1.595 0 2.32 1.011 2.32 2.755v5.946zM113.013 12.673h-3.774v-3.19h-2.321v3.19h-2.175v2.176h2.175v4.785c0 2.466 1.011 3.916 3.626 3.916 0.004 0 0.008 0 0.013 0 1.076 0 2.076-0.325 2.907-0.882l-0.019 0.012-0.726-2.030c-0.527 0.365-1.179 0.583-1.882 0.583-0.052 0-0.103-0.001-0.155-0.004l0.007 0c-1.16 0-1.595-0.725-1.595-1.74v-4.785h3.913zM132.59 12.383c-0.011-0-0.025-0-0.038-0-1.162 0-2.175 0.637-2.709 1.58l-0.008 0.015v-1.305h-2.32v10.587h2.32v-5.946c0-1.741 0.726-2.755 2.321-2.755 0.528 0.029 1.023 0.133 1.486 0.301l-0.036-0.011 0.725-2.176c-0.514-0.158-1.109-0.262-1.724-0.289l-0.016-0.001zM103.003 13.544c-1.25-0.725-2.75-1.155-4.349-1.16h-0.002c-2.611 0-4.351 1.305-4.351 3.335 0 1.741 1.305 2.756 3.625 3.191l1.011 0.145c1.305 0.145 1.885 0.58 1.885 1.159 0 0.871-0.869 1.305-2.465 1.305-0.074 0.004-0.161 0.006-0.249 0.006-1.233 0-2.363-0.44-3.242-1.172l0.008 0.007-1.011 1.74c1.301 0.895 2.907 1.435 4.638 1.45l0.004 0c3.045 0 4.785-1.45 4.785-3.482 0-1.885-1.45-2.9-3.626-3.19l-1.158-0.14c-1.011-0.145-1.741-0.29-1.741-1.011s0.726-1.304 2.031-1.304c0.007-0 0.015-0 0.024-0 1.217 0 2.359 0.323 3.344 0.887l-0.033-0.017zM164.491 12.383c-0.012-0-0.025-0-0.039-0-1.161 0-2.174 0.637-2.708 1.58l-0.008 0.015v-1.305h-2.321v10.587h2.321v-5.946c0-1.741 0.725-2.755 2.321-2.755 0.528 0.029 1.023 0.133 1.486 0.301l-0.036-0.011 0.725-2.176c-0.514-0.158-1.109-0.262-1.724-0.289l-0.016-0.001zM134.911 18.039c-0.003 0.070-0.005 0.151-0.005 0.233 0 2.922 2.369 5.291 5.291 5.291 0.13 0 0.259-0.005 0.386-0.014l-0.017 0.001c0.043 0.001 0.093 0.002 0.144 0.002 1.383 0 2.65-0.494 3.636-1.315l-0.009 0.007-1.16-1.885c-0.749 0.607-1.706 0.984-2.75 1.011l-0.006 0c-0.035 0.001-0.075 0.002-0.116 0.002-1.704 0-3.085-1.381-3.085-3.085 0-0.089 0.004-0.177 0.011-0.264l-0.001 0.011c-0.006-0.075-0.010-0.161-0.010-0.249 0-1.704 1.381-3.085 3.085-3.085 0.039 0 0.077 0.001 0.116 0.002l-0.006-0c0.048-0.002 0.104-0.003 0.16-0.003 1.003 0 1.916 0.386 2.598 1.017l-0.003-0.002 1.16-1.885c-1.011-0.813-2.31-1.305-3.724-1.305-0.017 0-0.033 0-0.050 0l0.003-0c-0.157-0.017-0.339-0.027-0.524-0.027-2.842 0-5.146 2.304-5.146 5.146 0 0.138 0.005 0.275 0.016 0.41l-0.001-0.018zM156.367 18.036v-5.363h-2.32v1.305c-0.763-0.975-1.939-1.596-3.261-1.596-0.027 0-0.053 0-0.079 0.001l0.004-0c-2.891 0.025-5.226 2.375-5.226 5.27 0 0.085 0.002 0.169 0.006 0.252l-0-0.012c-0.004 0.072-0.006 0.156-0.006 0.241 0 2.895 2.334 5.245 5.223 5.27l0.002 0c0.022 0 0.049 0.001 0.076 0.001 1.322 0 2.498-0.621 3.254-1.587l0.007-0.009v1.304h2.319zM147.811 18.036c-0.007-0.076-0.010-0.165-0.010-0.254 0-1.703 1.381-3.084 3.083-3.084 0.042 0 0.083 0.001 0.124 0.002l-0.006-0c0.009-0 0.021-0 0.032-0 1.747 0 3.163 1.416 3.163 3.163 0 0.061-0.002 0.121-0.005 0.18l0-0.008c0.002 0.040 0.003 0.087 0.003 0.134 0 1.764-1.43 3.194-3.194 3.194s-3.194-1.43-3.194-3.194c0-0.047 0.001-0.094 0.003-0.141l-0 0.007zM120.112 12.38c-0.013-0-0.029-0-0.045-0-2.864 0-5.185 2.322-5.185 5.185 0 0.115 0.004 0.229 0.011 0.341l-0.001-0.015c-0.005 0.089-0.008 0.192-0.008 0.297 0 2.881 2.336 5.217 5.217 5.217 0.055 0 0.111-0.001 0.166-0.003l-0.008 0c0.067 0.002 0.146 0.004 0.225 0.004 1.568 0 3.007-0.548 4.138-1.464l-0.012 0.010-1.156-1.732c-0.821 0.691-1.879 1.123-3.037 1.16l-0.008 0c-0.044 0.002-0.096 0.004-0.148 0.004-1.536 0-2.81-1.125-3.041-2.597l-0.002-0.017h7.832v-0.875c0.145-3.19-1.885-5.511-4.931-5.511zM120.117 14.559c0.031-0.001 0.068-0.002 0.106-0.002 1.385 0 2.507 1.123 2.507 2.507 0 0.037-0.001 0.073-0.002 0.11l0-0.005h-5.365c0.010-1.445 1.184-2.612 2.631-2.612 0.043 0 0.087 0.001 0.13 0.003l-0.006-0zM177.69 18.042v-9.574h-2.321v5.511c-0.762-0.975-1.938-1.596-3.259-1.596-0.027 0-0.053 0-0.080 0.001l0.004-0c-2.892 0.025-5.227 2.375-5.227 5.27 0 0.085 0.002 0.169 0.006 0.252l-0-0.012c-0.004 0.072-0.006 0.156-0.006 0.241 0 2.895 2.335 5.246 5.224 5.27l0.002 0c0.023 0 0.049 0.001 0.076 0.001 1.321 0 2.497-0.621 3.252-1.587l0.007-0.009v1.304h2.321zM169.134 18.042c-0.007-0.076-0.011-0.165-0.011-0.255 0-1.702 1.38-3.082 3.082-3.082 0.042 0 0.083 0.001 0.124 0.002l-0.006-0c0.009-0 0.021-0 0.032-0 1.747 0 3.163 1.416 3.163 3.163 0 0.061-0.002 0.121-0.005 0.18l0-0.008c0.002 0.044 0.003 0.095 0.003 0.147 0 1.764-1.43 3.194-3.194 3.194s-3.194-1.43-3.194-3.194c0-0.052 0.001-0.103 0.004-0.154l-0 0.007zM91.548 18.042v-5.368h-2.323v1.305c-0.762-0.975-1.938-1.596-3.259-1.596-0.027 0-0.053 0-0.080 0.001l0.004-0c-2.892 0.025-5.227 2.375-5.227 5.27 0 0.085 0.002 0.169 0.006 0.252l-0-0.012c-0.004 0.072-0.005 0.156-0.005 0.241 0 2.895 2.335 5.246 5.224 5.27l0.002 0c0.023 0 0.049 0.001 0.076 0.001 1.321 0 2.497-0.621 3.252-1.587l0.007-0.009v1.304h2.325zM82.992 18.042c-0.007-0.076-0.011-0.165-0.011-0.255 0-1.702 1.38-3.082 3.082-3.082 0.042 0 0.083 0.001 0.124 0.002l-0.006-0c0.009-0 0.021-0 0.032-0 1.747 0 3.163 1.416 3.163 3.163 0 0.061-0.002 0.121-0.005 0.18l0-0.008c0.002 0.044 0.003 0.095 0.003 0.147 0 1.764-1.43 3.194-3.194 3.194s-3.194-1.43-3.194-3.194c0-0.052 0.001-0.103 0.004-0.154l-0 0.007z"></path>
<path fill="#ff5a00" style="fill: var(--color2, #ff5a00)" d="M25.711 28.482c0.065 0.049 0.122 0.098 0.188 0.147h-0.337c-3.646-2.989-5.954-7.493-5.954-12.537 0-0.030 0-0.061 0-0.091l-0 0.005c-0-0.037-0-0.080-0-0.124 0-4.977 2.296-9.418 5.886-12.322l0.030-0.023h0.474c0.838 0.755 1.596 1.562 2.28 2.43l0.031 0.041c2.169 2.7 3.482 6.169 3.482 9.945 0 5.070-2.366 9.587-6.055 12.507l-0.033 0.025z"></path>
<path fill="#eb001b" style="fill: var(--color3, #eb001b)" d="M25.563 28.629c-2.67 2.101-6.081 3.37-9.788 3.37s-7.118-1.269-9.822-3.396l0.034 0.026c-3.667-2.997-5.99-7.519-5.99-12.585 0-3.744 1.269-7.192 3.4-9.936l-0.027 0.037c2.939-3.743 7.464-6.125 12.546-6.125 3.71 0 7.123 1.269 9.829 3.398l-0.034-0.026c-0.057 0.049-0.122 0.090-0.18 0.147-3.62 2.927-5.916 7.368-5.916 12.345 0 0.043 0 0.087 0.001 0.13l-0-0.007c-0 0.026-0 0.056-0 0.086 0 5.043 2.308 9.547 5.925 12.514l0.028 0.023z"></path>
<path fill="#f79e1b" style="fill: var(--color4, #f79e1b)" d="M51.373 16.006c0 0.025 0 0.055 0 0.084 0 8.741-7.066 15.832-15.797 15.872h-0.004c-0.026 0-0.056 0-0.087 0-3.636 0-6.98-1.256-9.619-3.358l0.031 0.024c-0.065-0.049-0.122-0.098-0.188-0.147 3.721-2.945 6.087-7.462 6.087-12.531 0-3.775-1.312-7.244-3.506-9.975l0.024 0.031c-0.716-0.909-1.474-1.717-2.295-2.456l-0.018-0.016-0.293-0.294c2.644-1.988 5.982-3.184 9.599-3.184 8.831 0 15.998 7.127 16.063 15.943l0 0.006z"></path>
</symbol>
<symbol id="icon-skrill" viewBox="0 0 512 512">
  <path d="M480 32H32C14.327 32 0 46.327 0 64v384c0 17.673 14.327 32 32 32h448c17.673 0 32-14.327 32-32V64c0-17.673-14.327-32-32-32zM160 384c-35.346 0-64-28.654-64-64s28.654-64 64-64 64 28.654 64 64-28.654 64-64 64zm192-128c-35.346 0-64-28.654-64-64s28.654-64 64-64 64 28.654 64 64-28.654 64-64 64zM448 384c-17.673 0-32-14.327-32-32V160c0-17.673 14.327-32 32-32s32 14.327 32 32v192c0 17.673-14.327 32-32 32z"/>
</symbol>
<symbol id="icon-circle-right" viewBox="0 0 32 32">
<path d="M16 0c-8.837 0-16 7.163-16 16s7.163 16 16 16 16-7.163 16-16-7.163-16-16-16zM16 29c-7.18 0-13-5.82-13-13s5.82-13 13-13 13 5.82 13 13-5.82 13-13 13z"></path>
<path d="M11.086 22.086l2.829 2.829 8.914-8.914-8.914-8.914-2.828 2.828 6.086 6.086z"></path>
</symbol>
<symbol id="icon-visa" viewBox="0 0 32 32">
<path fill="#142787" style="fill: var(--color5, #142787)" d="M23.26 11.497c-0.516-0.195-1.32-0.401-2.32-0.401-2.56 0-4.367 1.291-4.38 3.14-0.016 1.36 1.285 2.125 2.268 2.581 1.009 0.467 1.347 0.76 1.344 1.18-0.007 0.636-0.807 0.924-1.549 0.924-1.021 0-1.581-0.143-2.441-0.5l-0.319-0.148-0.361 2.131c0.621 0.26 1.741 0.483 2.9 0.5 2.721 0 4.5-1.281 4.521-3.252 0.021-1.084-0.68-1.907-2.161-2.584-0.899-0.44-1.459-0.735-1.459-1.181 0-0.395 0.479-0.816 1.479-0.816 0.86-0.013 1.461 0.172 1.94 0.364l0.24 0.108 0.361-2.059zM29.904 11.271h-2c-0.623 0-1.088 0.169-1.361 0.788l-3.847 8.712h2.721l0.544-1.427 3.32 0.003c0.081 0.333 0.32 1.424 0.32 1.424h2.399zM12.88 11.191h2.591l-1.62 9.505h-2.592l1.621-9.508zM6.295 16.429l0.269 1.32 2.535-6.479h2.745l-4.081 9.487h-2.739l-2.24-8.035c-0.047-0.137-0.104-0.231-0.24-0.316-0.757-0.396-1.604-0.719-2.544-0.943l0.033-0.2h4.175c0.565 0.021 1.021 0.2 1.177 0.805l0.909 4.364zM26.705 17.399l1.033-2.659c-0.013 0.027 0.213-0.549 0.344-0.907l0.177 0.82 0.599 2.743h-2.153z"></path>
</symbol>
<symbol id="icon-home3" viewBox="0 0 32 32">
<path d="M32 19l-6-6v-9h-4v5l-6-6-16 16v1h4v10h10v-6h4v6h10v-10h4z"></path>
</symbol>
<symbol id="icon-images" viewBox="0 0 36 32">
<path d="M34 4h-2v-2c0-1.1-0.9-2-2-2h-28c-1.1 0-2 0.9-2 2v24c0 1.1 0.9 2 2 2h2v2c0 1.1 0.9 2 2 2h28c1.1 0 2-0.9 2-2v-24c0-1.1-0.9-2-2-2zM4 6v20h-1.996c-0.001-0.001-0.003-0.002-0.004-0.004v-23.993c0.001-0.001 0.002-0.003 0.004-0.004h27.993c0.001 0.001 0.003 0.002 0.004 0.004v1.996h-24c-1.1 0-2 0.9-2 2v0zM34 29.996c-0.001 0.001-0.002 0.003-0.004 0.004h-27.993c-0.001-0.001-0.003-0.002-0.004-0.004v-23.993c0.001-0.001 0.002-0.003 0.004-0.004h27.993c0.001 0.001 0.003 0.002 0.004 0.004v23.993z"></path>
<path d="M30 11c0 1.657-1.343 3-3 3s-3-1.343-3-3 1.343-3 3-3 3 1.343 3 3z"></path>
<path d="M32 28h-24v-4l7-12 8 10h2l7-6z"></path>
</symbol>
<symbol id="icon-dice" viewBox="0 0 32 32">
<path d="M27 6h-16c-2.75 0-5 2.25-5 5v16c0 2.75 2.25 5 5 5h16c2.75 0 5-2.25 5-5v-16c0-2.75-2.25-5-5-5zM13 28c-1.657 0-3-1.343-3-3s1.343-3 3-3 3 1.343 3 3-1.343 3-3 3zM13 16c-1.657 0-3-1.343-3-3s1.343-3 3-3 3 1.343 3 3-1.343 3-3 3zM19 22c-1.657 0-3-1.343-3-3s1.343-3 3-3 3 1.343 3 3-1.343 3-3 3zM25 28c-1.657 0-3-1.343-3-3s1.343-3 3-3 3 1.343 3 3-1.343 3-3 3zM25 16c-1.657 0-3-1.343-3-3s1.343-3 3-3 3 1.343 3 3-1.343 3-3 3zM25.899 4c-0.467-2.275-2.491-4-4.899-4h-16c-2.75 0-5 2.25-5 5v16c0 2.408 1.725 4.432 4 4.899v-19.899c0-1.1 0.9-2 2-2h19.899z"></path>
</symbol>
<symbol id="icon-pacman" viewBox="0 0 32 32">
<path d="M30.148 5.588c-2.934-3.42-7.288-5.588-12.148-5.588-8.837 0-16 7.163-16 16s7.163 16 16 16c4.86 0 9.213-2.167 12.148-5.588l-10.148-10.412 10.148-10.412zM22 3.769c1.232 0 2.231 0.999 2.231 2.231s-0.999 2.231-2.231 2.231-2.231-0.999-2.231-2.231c0-1.232 0.999-2.231 2.231-2.231z"></path>
</symbol>
<symbol id="icon-skrill-svgrepo-com" viewBox="0 0 32 32">
<path fill="#fff" style="fill: var(--color1, #fff)" d="M2.207 5.241h27.586c1.066 0 1.931 0.865 1.931 1.931v17.655c0 1.066-0.865 1.931-1.931 1.931h-27.586c-1.066 0-1.931-0.865-1.931-1.931v-17.655c0-1.066 0.865-1.931 1.931-1.931z"></path>
<path fill="#862165" style="fill: var(--color2, #862165)" d="M26.841 11.984v8.008h2.203v-8.4l-2.203 0.392z"></path>
<path fill="#862165" style="fill: var(--color2, #862165)" d="M23.625 11.984l2.202-0.392v8.4h-2.202v-8.008z"></path>
<path fill="#862165" style="fill: var(--color2, #862165)" d="M20.489 19.992v-6.144h2.203v6.144h-2.203z"></path>
<path fill="#862165" style="fill: var(--color2, #862165)" d="M20.504 12.181c0-0.596 0.486-1.079 1.086-1.079 0.6 0 1.086 0.483 1.086 1.079s-0.486 1.079-1.086 1.079c-0.599 0-1.086-0.482-1.086-1.079z"></path>
<path fill="#862165" style="fill: var(--color2, #862165)" d="M19.246 13.758c-2.035 0.065-3.069 0.973-3.069 2.778v3.456h2.221v-2.819c0-1.080 0.142-1.543 1.433-1.587v-1.796c-0.217-0.046-0.585-0.032-0.585-0.032v0z"></path>
<path fill="#862165" style="fill: var(--color2, #862165)" d="M13.27 13.842c-0.049 0.123-0.401 1.113-1.255 2.139v-4.388l-2.273 0.447v7.953h2.273v-2.459c0.658 0.982 0.984 2.459 0.984 2.459h2.722c-0.269-1.113-1.447-3.164-1.447-3.164 1.058-1.333 1.522-2.752 1.596-2.987h-2.6z"></path>
<path fill="#862165" style="fill: var(--color2, #862165)" d="M5.93 14.718c-0.278-0.018-0.923-0.060-0.923-0.636 0-0.696 0.928-0.696 1.276-0.696 0.612 0 1.405 0.179 1.971 0.348 0 0 0.315 0.111 0.584 0.224l0.025 0.007v-1.906l-0.034-0.010c-0.669-0.232-1.445-0.456-2.886-0.456-2.483 0-3.363 1.437-3.363 2.669 0 0.71 0.306 2.381 3.149 2.573 0.242 0.015 0.882 0.052 0.882 0.647 0 0.492-0.524 0.782-1.405 0.782-0.965 0-1.902-0.244-2.471-0.476v1.962c0.852 0.223 1.812 0.333 2.937 0.333 2.427 0 3.515-1.36 3.515-2.708 0-1.528-1.217-2.521-3.258-2.657v0z"></path>
</symbol>
<symbol id="icon-skrill-ar21" viewBox="0 0 64 32">
<path fill="#862565" style="fill: var(--color1, #862565)" d="M41.739 12.043c1.012 0 1.831-0.819 1.831-1.829s-0.82-1.831-1.831-1.831-1.829 0.82-1.829 1.831c0 0 0 0 0 0.001 0 1.010 0.819 1.829 1.829 1.829v0zM27.715 13.029c-0.083 0.213-0.677 1.888-2.116 3.628v-7.443l-3.832 0.757v13.493h3.833v-4.171c1.11 1.664 1.659 4.171 1.659 4.171h4.59c-0.453-1.888-2.44-5.368-2.44-5.368 1.13-1.445 2.044-3.127 2.655-4.949l0.035-0.119zM37.79 12.889c-3.432 0.11-5.175 1.65-5.175 4.711v5.865h3.745v-4.782c0-1.833 0.24-2.613 2.415-2.693v-3.045c-0.366-0.078-0.985-0.053-0.985-0.053zM15.341 14.517c-0.469-0.030-1.556-0.101-1.556-1.079 0-1.18 1.564-1.18 2.151-1.18 1.032 0 2.368 0.304 3.323 0.59 0.191 0.087 0.517 0.216 0.847 0.336l0.139 0.044 0.043 0.012v-3.234l-0.058-0.017c-1.126-0.395-2.436-0.773-4.864-0.773-4.187 0-5.669 2.438-5.669 4.528 0 1.204 0.516 4.039 5.31 4.366 0.406 0.025 1.485 0.087 1.485 1.099 0 0.835-0.883 1.327-2.368 1.327-1.627 0-3.207-0.415-4.165-0.809v3.33c1.436 0.376 3.054 0.564 4.951 0.564 4.093 0 5.926-2.307 5.926-4.594 0-2.593-2.051-4.277-5.493-4.508zM39.884 23.467h3.714v-10.425h-3.715zM50.592 9.88v13.587h3.715v-14.251zM45.172 9.88l3.711-0.664v14.251h-3.711v-13.588z"></path>
</symbol>
<symbol id="icon-Vector" viewBox="0 0 32 32">
<path d="M16 29.609c3.609 0 7.071-1.434 9.623-3.986s3.986-6.014 3.986-9.623c0-3.609-1.434-7.071-3.986-9.623s-6.014-3.986-9.623-3.986c-3.609 0-7.071 1.434-9.623 3.986s-3.986 6.014-3.986 9.623c0 3.609 1.434 7.071 3.986 9.623s6.014 3.986 9.623 3.986zM31.816 16c0 8.735-7.081 15.816-15.816 15.816s-15.816-7.081-15.816-15.816c0-8.735 7.081-15.816 15.816-15.816s15.816 7.081 15.816 15.816zM16.692 21.194c-0.207-0.207-0.323-0.487-0.323-0.78s0.116-0.573 0.323-0.78l2.531-2.531h-9.107c-0.293 0-0.573-0.116-0.78-0.323s-0.323-0.488-0.323-0.78c0-0.293 0.116-0.573 0.323-0.78s0.488-0.323 0.78-0.323h9.107l-2.531-2.531c-0.108-0.101-0.195-0.223-0.256-0.358s-0.093-0.281-0.095-0.43c-0.003-0.148 0.025-0.295 0.080-0.433s0.138-0.262 0.243-0.367c0.105-0.105 0.23-0.187 0.367-0.243s0.285-0.083 0.433-0.080c0.148 0.003 0.294 0.035 0.43 0.095s0.257 0.147 0.358 0.256l4.414 4.414c0.207 0.207 0.323 0.487 0.323 0.78s-0.116 0.573-0.323 0.78l-4.414 4.414c-0.207 0.207-0.487 0.323-0.78 0.323s-0.573-0.116-0.78-0.323z"></path>
</symbol>
<symbol id="icon-arr-left" viewBox="0 0 32 32">
<path d="M16 2.391c-3.609 0-7.071 1.434-9.623 3.986s-3.986 6.014-3.986 9.623 1.434 7.071 3.986 9.623c2.552 2.552 6.014 3.986 9.623 3.986s7.071-1.434 9.623-3.986c2.552-2.552 3.986-6.014 3.986-9.623s-1.434-7.071-3.986-9.623c-2.552-2.552-6.014-3.986-9.623-3.986zM0.184 16c0-8.735 7.081-15.816 15.816-15.816s15.816 7.081 15.816 15.816c0 8.735-7.081 15.816-15.816 15.816s-15.816-7.081-15.816-15.816zM15.309 10.806c0.207 0.207 0.323 0.487 0.323 0.78s-0.116 0.573-0.323 0.78l-2.531 2.531h9.107c0.293 0 0.573 0.116 0.78 0.323s0.323 0.488 0.323 0.78-0.116 0.573-0.323 0.78c-0.207 0.207-0.488 0.323-0.78 0.323h-9.107l2.531 2.531c0.108 0.101 0.195 0.223 0.256 0.358s0.093 0.282 0.095 0.43c0.003 0.148-0.025 0.295-0.080 0.433s-0.138 0.262-0.243 0.367-0.23 0.187-0.367 0.243c-0.137 0.055-0.285 0.083-0.433 0.080s-0.294-0.035-0.43-0.095c-0.135-0.060-0.257-0.147-0.358-0.256l-4.414-4.414c-0.207-0.207-0.323-0.487-0.323-0.78s0.116-0.573 0.323-0.78l4.414-4.414c0.207-0.207 0.487-0.323 0.78-0.323s0.573 0.116 0.78 0.323z"></path>
</symbol>
</defs>
</svg>
